<?xml version="1.0" encoding="UTF-8"?><svg xmlns="http://www.w3.org/2000/svg" width="600" height="182" version="1.0" shape-rendering="geometricPrecision"><defs><filter id="shadowBlur" x="0" y="0" width="200%" height="200%"><feOffset in="SourceGraphic" dx="3.0003002" dy="3.0003002" result="offOut"></feOffset><feGaussianBlur in="offOut" stdDeviation="3"></feGaussianBlur></filter></defs><g stroke-width="1" stroke-linecap="square" stroke-linejoin="round"><rect x="0" y="0" width="600" height="182" style="fill: #ffffff"></rect><path stroke="#969696" fill="#969696" filter="url(#shadowBlur)" d="M445.0 63.0 L575.0 63.0 L575.0 119.0 L445.0 119.0 z"></path><path stroke="#969696" fill="#969696" filter="url(#shadowBlur)" d="M285.0 63.0 L385.0 63.0 L385.0 119.0 L285.0 119.0 z"></path><path stroke="#000000" stroke-width="1.0" stroke-linecap="round" stroke-linejoin="round" fill="none" d="M195.0 49.0 L195.0 35.0 L25.0 35.0 L25.0 147.0 L195.0 147.0 L195.0 133.0 "></path><path stroke="#000000" stroke-width="1.0" stroke-linecap="round" stroke-linejoin="round" fill="white" d="M445.0 63.0 L575.0 63.0 L575.0 119.0 L445.0 119.0 z"></path><path stroke="#000000" stroke-width="1.0" stroke-linecap="round" stroke-linejoin="round" fill="none" d="M235.0 77.0 L235.0 63.0 L125.0 63.0 L125.0 119.0 L235.0 119.0 L235.0 105.0 "></path><path stroke="#000000" stroke-width="1.0" stroke-linecap="round" stroke-linejoin="round" fill="white" d="M285.0 63.0 L385.0 63.0 L385.0 119.0 L285.0 119.0 z"></path><path stroke="none" stroke-width="1.0" stroke-linecap="round" stroke-linejoin="round" fill="#000000" d="M270.0 84.0 L280.0 91.0 L270.0 98.0 z"></path><path stroke="none" stroke-width="1.0" stroke-linecap="round" stroke-linejoin="round" fill="#000000" d="M430.0 84.0 L440.0 91.0 L430.0 98.0 z"></path><path stroke="#000000" stroke-width="1.0" stroke-dasharray="5.0,5.0" stroke-miterlimit="0" stroke-linecap="butt" stroke-linejoin="round" fill="none" d="M225.0 91.0 L275.0 91.0 "></path><path stroke="#000000" stroke-width="1.0" stroke-linecap="round" stroke-linejoin="round" fill="none" d="M395.0 91.0 L435.0 91.0 "></path><text x="50" y="54" font-family="sans-serif" font-size="15" stroke="none" fill="#000000"><![CDATA[Single Hart]]></text><text x="150" y="82" font-family="sans-serif" font-size="15" stroke="none" fill="#000000"><![CDATA[Trace]]></text><text x="145" y="96" font-family="sans-serif" font-size="15" stroke="none" fill="#000000"><![CDATA[Ingress]]></text><text x="150" y="110" font-family="sans-serif" font-size="15" stroke="none" fill="#000000"><![CDATA[Port]]></text><text x="312" y="82" font-family="sans-serif" font-size="15" stroke="none" fill="#000000"><![CDATA[Trace]]></text><text x="302" y="96" font-family="sans-serif" font-size="15" stroke="none" fill="#000000"><![CDATA[Encoder]]></text><text x="467" y="82" font-family="sans-serif" font-size="15" stroke="none" fill="#000000"><![CDATA[Trace Sink]]></text><text x="493" y="96" font-family="sans-serif" font-size="15" stroke="none" fill="#000000"><![CDATA[or]]></text><text x="466" y="110" font-family="sans-serif" font-size="15" stroke="none" fill="#000000"><![CDATA[ATB Bridge]]></text></g></svg>