<svg xmlns="http://www.w3.org/2000/svg" width="1024" height="64" viewBox="0 0 1024 64" xmlns:xlink="http://www.w3.org/1999/xlink" class="WaveDrom"><g transform="translate(0.5,0.5)" text-anchor="middle" font-size="16" font-family="sans-serif" font-weight="normal"><g transform="translate(4,24)"><g stroke="black" stroke-width="1" stroke-linecap="round"><line x2="1015"/><line y2="36"/><line x2="1015" y1="36" y2="36"/><line x1="1015" x2="1015" y2="36"/><line x1="964" x2="964" y2="4"/><line x1="964" x2="964" y1="36" y2="32"/><line x1="914" x2="914" y2="4"/><line x1="914" x2="914" y1="36" y2="32"/><line x1="863" x2="863" y2="4"/><line x1="863" x2="863" y1="36" y2="32"/><line x1="812" x2="812" y2="4"/><line x1="812" x2="812" y1="36" y2="32"/><line x1="761" x2="761" y2="4"/><line x1="761" x2="761" y1="36" y2="32"/><line x1="711" x2="711" y2="4"/><line x1="711" x2="711" y1="36" y2="32"/><line x1="660" x2="660" y2="4"/><line x1="660" x2="660" y1="36" y2="32"/><line x1="609" x2="609" y2="36"/><line x1="558" x2="558" y2="4"/><line x1="558" x2="558" y1="36" y2="32"/><line x1="508" x2="508" y2="4"/><line x1="508" x2="508" y1="36" y2="32"/><line x1="457" x2="457" y2="4"/><line x1="457" x2="457" y1="36" y2="32"/><line x1="406" x2="406" y2="4"/><line x1="406" x2="406" y1="36" y2="32"/><line x1="355" x2="355" y2="4"/><line x1="355" x2="355" y1="36" y2="32"/><line x1="305" x2="305" y2="4"/><line x1="305" x2="305" y1="36" y2="32"/><line x1="254" x2="254" y2="4"/><line x1="254" x2="254" y1="36" y2="32"/><line x1="203" x2="203" y2="4"/><line x1="203" x2="203" y1="36" y2="32"/><line x1="152" x2="152" y2="36"/><line x1="102" x2="102" y2="4"/><line x1="102" x2="102" y1="36" y2="32"/><line x1="51" x2="51" y2="4"/><line x1="51" x2="51" y1="36" y2="32"/></g><g><g/><g transform="translate(25,-12)"><g transform="translate(964)"><text y="6">0</text></g><g transform="translate(609)"><text y="6">7</text></g><g transform="translate(558)"><text y="6">8</text></g><g transform="translate(152)"><text y="6">16</text></g><g transform="translate(102)"><text y="6">17</text></g><g transform="translate(0)"><text y="6">19</text></g></g><g transform="translate(25,18)"><g transform="translate(787)"><text y="6"><tspan>PDI[0]</tspan></text></g><g transform="translate(355)"><text y="6"><tspan>PDI[1]</tspan></text></g><g transform="translate(51)"><text y="6"><tspan>PDI[2]</tspan></text></g></g><g transform="translate(25,45)"/></g></g></g></svg>
