<?xml version="1.0" encoding="UTF-8"?><svg xmlns:svg="http://www.w3.org/2000/svg" xmlns="http://www.w3.org/2000/svg" xmlns:xlink="http://www.w3.org/1999/xlink" version="1.0" width="1401" height="109" viewBox="0 0 1401 109" ><text font-size="15" x="60" y="9.5" font-family="Courier New, monospace" dominant-baseline="middle" text-anchor="middle" >31</text><text font-size="15" x="100" y="9.5" font-family="Courier New, monospace" dominant-baseline="middle" text-anchor="middle" ></text><text font-size="15" x="140" y="9.5" font-family="Courier New, monospace" dominant-baseline="middle" text-anchor="middle" ></text><text font-size="15" x="180" y="9.5" font-family="Courier New, monospace" dominant-baseline="middle" text-anchor="middle" ></text><text font-size="15" x="220" y="9.5" font-family="Courier New, monospace" dominant-baseline="middle" text-anchor="middle" >24</text><text font-size="15" x="260" y="9.5" font-family="Courier New, monospace" dominant-baseline="middle" text-anchor="middle" >23</text><text font-size="15" x="300" y="9.5" font-family="Courier New, monospace" dominant-baseline="middle" text-anchor="middle" >22</text><text font-size="15" x="340" y="9.5" font-family="Courier New, monospace" dominant-baseline="middle" text-anchor="middle" ></text><text font-size="15" x="380" y="9.5" font-family="Courier New, monospace" dominant-baseline="middle" text-anchor="middle" ></text><text font-size="15" x="420" y="9.5" font-family="Courier New, monospace" dominant-baseline="middle" text-anchor="middle" ></text><text font-size="15" x="460" y="9.5" font-family="Courier New, monospace" dominant-baseline="middle" text-anchor="middle" >20</text><text font-size="15" x="500" y="9.5" font-family="Courier New, monospace" dominant-baseline="middle" text-anchor="middle" ></text><text font-size="15" x="540" y="9.5" font-family="Courier New, monospace" dominant-baseline="middle" text-anchor="middle" ></text><text font-size="15" x="580" y="9.5" font-family="Courier New, monospace" dominant-baseline="middle" text-anchor="middle" ></text><text font-size="15" x="620" y="9.5" font-family="Courier New, monospace" dominant-baseline="middle" text-anchor="middle" >19</text><text font-size="15" x="660" y="9.5" font-family="Courier New, monospace" dominant-baseline="middle" text-anchor="middle" ></text><text font-size="15" x="700" y="9.5" font-family="Courier New, monospace" dominant-baseline="middle" text-anchor="middle" ></text><text font-size="15" x="740" y="9.5" font-family="Courier New, monospace" dominant-baseline="middle" text-anchor="middle" ></text><text font-size="15" x="780" y="9.5" font-family="Courier New, monospace" dominant-baseline="middle" text-anchor="middle" ></text><text font-size="15" x="820" y="9.5" font-family="Courier New, monospace" dominant-baseline="middle" text-anchor="middle" >18</text><text font-size="15" x="860" y="9.5" font-family="Courier New, monospace" dominant-baseline="middle" text-anchor="middle" ></text><text font-size="15" x="900" y="9.5" font-family="Courier New, monospace" dominant-baseline="middle" text-anchor="middle" ></text><text font-size="15" x="940" y="9.5" font-family="Courier New, monospace" dominant-baseline="middle" text-anchor="middle" >17</text><text font-size="15" x="980" y="9.5" font-family="Courier New, monospace" dominant-baseline="middle" text-anchor="middle" ></text><text font-size="15" x="1020" y="9.5" font-family="Courier New, monospace" dominant-baseline="middle" text-anchor="middle" ></text><text font-size="15" x="1060" y="9.5" font-family="Courier New, monospace" dominant-baseline="middle" text-anchor="middle" >16</text><text font-size="15" x="1100" y="9.5" font-family="Courier New, monospace" dominant-baseline="middle" text-anchor="middle" ></text><text font-size="15" x="1140" y="9.5" font-family="Courier New, monospace" dominant-baseline="middle" text-anchor="middle" >15</text><text font-size="15" x="1180" y="9.5" font-family="Courier New, monospace" dominant-baseline="middle" text-anchor="middle" ></text><text font-size="15" x="1220" y="9.5" font-family="Courier New, monospace" dominant-baseline="middle" text-anchor="middle" ></text><text font-size="15" x="1260" y="9.5" font-family="Courier New, monospace" dominant-baseline="middle" text-anchor="middle" ></text><text font-size="15" x="1300" y="9.5" font-family="Courier New, monospace" dominant-baseline="middle" text-anchor="middle" ></text><text font-size="15" x="1340" y="9.5" font-family="Courier New, monospace" dominant-baseline="middle" text-anchor="middle" ></text><text font-size="15" x="1380" y="9.5" font-family="Courier New, monospace" dominant-baseline="middle" text-anchor="middle" >0</text><line x1="40" y1="18" x2="240" y2="18" stroke="#000000" stroke-width="1" /><line x1="40" y1="63" x2="240" y2="63" stroke="#000000" stroke-width="1" /><line x1="240" y1="18" x2="240" y2="63" stroke="#000000" stroke-width="1" /><line x1="40" y1="18" x2="40" y2="63" stroke="#000000" stroke-width="1" /><text font-size="20" x="140" y="41.5" text-anchor="middle" dominant-baseline="middle" >cmdtype</text><line x1="240" y1="18" x2="280" y2="18" stroke="#000000" stroke-width="1" /><line x1="240" y1="63" x2="280" y2="63" stroke="#000000" stroke-width="1" /><line x1="280" y1="18" x2="280" y2="63" stroke="#000000" stroke-width="1" /><line x1="240" y1="18" x2="240" y2="63" stroke="#000000" stroke-width="1" /><text font-size="20" x="260" y="41.5" text-anchor="middle" dominant-baseline="middle" >0</text><line x1="280" y1="18" x2="480" y2="18" stroke="#000000" stroke-width="1" /><line x1="280" y1="63" x2="480" y2="63" stroke="#000000" stroke-width="1" /><line x1="480" y1="18" x2="480" y2="63" stroke="#000000" stroke-width="1" /><line x1="280" y1="18" x2="280" y2="63" stroke="#000000" stroke-width="1" /><text font-size="20" x="380" y="41.5" text-anchor="middle" dominant-baseline="middle" >aarsize</text><line x1="480" y1="18" x2="760" y2="18" stroke="#000000" stroke-width="1" /><line x1="480" y1="63" x2="760" y2="63" stroke="#000000" stroke-width="1" /><line x1="760" y1="18" x2="760" y2="63" stroke="#000000" stroke-width="1" /><line x1="480" y1="18" x2="480" y2="63" stroke="#000000" stroke-width="1" /><text font-size="20" x="620" y="41.5" text-anchor="middle" dominant-baseline="middle" >aarpostincrement</text><line x1="760" y1="18" x2="880" y2="18" stroke="#000000" stroke-width="1" /><line x1="760" y1="63" x2="880" y2="63" stroke="#000000" stroke-width="1" /><line x1="880" y1="18" x2="880" y2="63" stroke="#000000" stroke-width="1" /><line x1="760" y1="18" x2="760" y2="63" stroke="#000000" stroke-width="1" /><text font-size="20" x="820" y="41.5" text-anchor="middle" dominant-baseline="middle" >postexec</text><line x1="880" y1="18" x2="1000" y2="18" stroke="#000000" stroke-width="1" /><line x1="880" y1="63" x2="1000" y2="63" stroke="#000000" stroke-width="1" /><line x1="1000" y1="18" x2="1000" y2="63" stroke="#000000" stroke-width="1" /><line x1="880" y1="18" x2="880" y2="63" stroke="#000000" stroke-width="1" /><text font-size="20" x="940" y="41.5" text-anchor="middle" dominant-baseline="middle" >transfer</text><line x1="1000" y1="18" x2="1120" y2="18" stroke="#000000" stroke-width="1" /><line x1="1000" y1="63" x2="1120" y2="63" stroke="#000000" stroke-width="1" /><line x1="1120" y1="18" x2="1120" y2="63" stroke="#000000" stroke-width="1" /><line x1="1000" y1="18" x2="1000" y2="63" stroke="#000000" stroke-width="1" /><text font-size="20" x="1060" y="41.5" text-anchor="middle" dominant-baseline="middle" >write</text><line x1="1120" y1="18" x2="1400" y2="18" stroke="#000000" stroke-width="1" /><line x1="1120" y1="63" x2="1400" y2="63" stroke="#000000" stroke-width="1" /><line x1="1400" y1="18" x2="1400" y2="63" stroke="#000000" stroke-width="1" /><line x1="1120" y1="18" x2="1120" y2="63" stroke="#000000" stroke-width="1" /><text font-size="20" x="1260" y="41.5" text-anchor="middle" dominant-baseline="middle" >regno</text><text font-size="18" font-family="Palatino, Georgia, Times New Roman, serif" x="140" y="86.5" text-anchor="middle" dominant-baseline="middle" >8</text><text font-size="18" font-family="Palatino, Georgia, Times New Roman, serif" x="260" y="86.5" text-anchor="middle" dominant-baseline="middle" >1</text><text font-size="18" font-family="Palatino, Georgia, Times New Roman, serif" x="380" y="86.5" text-anchor="middle" dominant-baseline="middle" >3</text><text font-size="18" font-family="Palatino, Georgia, Times New Roman, serif" x="620" y="86.5" text-anchor="middle" dominant-baseline="middle" >1</text><text font-size="18" font-family="Palatino, Georgia, Times New Roman, serif" x="820" y="86.5" text-anchor="middle" dominant-baseline="middle" >1</text><text font-size="18" font-family="Palatino, Georgia, Times New Roman, serif" x="940" y="86.5" text-anchor="middle" dominant-baseline="middle" >1</text><text font-size="18" font-family="Palatino, Georgia, Times New Roman, serif" x="1060" y="86.5" text-anchor="middle" dominant-baseline="middle" >1</text><text font-size="18" font-family="Palatino, Georgia, Times New Roman, serif" x="1260" y="86.5" text-anchor="middle" dominant-baseline="middle" >16</text></svg>