<?xml version="1.0" encoding="UTF-8"?><svg xmlns:svg="http://www.w3.org/2000/svg" xmlns="http://www.w3.org/2000/svg" xmlns:xlink="http://www.w3.org/1999/xlink" version="1.0" width="1241" height="109" viewBox="0 0 1241 109" ><text font-size="15" x="60" y="9.5" font-family="Courier New, monospace" dominant-baseline="middle" text-anchor="middle" >15</text><text font-size="15" x="100" y="9.5" font-family="Courier New, monospace" dominant-baseline="middle" text-anchor="middle" ></text><text font-size="15" x="140" y="9.5" font-family="Courier New, monospace" dominant-baseline="middle" text-anchor="middle" ></text><text font-size="15" x="180" y="9.5" font-family="Courier New, monospace" dominant-baseline="middle" text-anchor="middle" ></text><text font-size="15" x="220" y="9.5" font-family="Courier New, monospace" dominant-baseline="middle" text-anchor="middle" >12</text><text font-size="15" x="260" y="9.5" font-family="Courier New, monospace" dominant-baseline="middle" text-anchor="middle" ></text><text font-size="15" x="300" y="9.5" font-family="Courier New, monospace" dominant-baseline="middle" text-anchor="middle" >11</text><text font-size="15" x="340" y="9.5" font-family="Courier New, monospace" dominant-baseline="middle" text-anchor="middle" ></text><text font-size="15" x="380" y="9.5" font-family="Courier New, monospace" dominant-baseline="middle" text-anchor="middle" >10</text><text font-size="15" x="420" y="9.5" font-family="Courier New, monospace" dominant-baseline="middle" text-anchor="middle" ></text><text font-size="15" x="460" y="9.5" font-family="Courier New, monospace" dominant-baseline="middle" text-anchor="middle" ></text><text font-size="15" x="500" y="9.5" font-family="Courier New, monospace" dominant-baseline="middle" text-anchor="middle" ></text><text font-size="15" x="540" y="9.5" font-family="Courier New, monospace" dominant-baseline="middle" text-anchor="middle" >7</text><text font-size="15" x="580" y="9.5" font-family="Courier New, monospace" dominant-baseline="middle" text-anchor="middle" >6</text><text font-size="15" x="620" y="9.5" font-family="Courier New, monospace" dominant-baseline="middle" text-anchor="middle" ></text><text font-size="15" x="660" y="9.5" font-family="Courier New, monospace" dominant-baseline="middle" text-anchor="middle" ></text><text font-size="15" x="700" y="9.5" font-family="Courier New, monospace" dominant-baseline="middle" text-anchor="middle" >5</text><text font-size="15" x="740" y="9.5" font-family="Courier New, monospace" dominant-baseline="middle" text-anchor="middle" ></text><text font-size="15" x="780" y="9.5" font-family="Courier New, monospace" dominant-baseline="middle" text-anchor="middle" ></text><text font-size="15" x="820" y="9.5" font-family="Courier New, monospace" dominant-baseline="middle" text-anchor="middle" >4</text><text font-size="15" x="860" y="9.5" font-family="Courier New, monospace" dominant-baseline="middle" text-anchor="middle" >3</text><text font-size="15" x="900" y="9.5" font-family="Courier New, monospace" dominant-baseline="middle" text-anchor="middle" ></text><text font-size="15" x="940" y="9.5" font-family="Courier New, monospace" dominant-baseline="middle" text-anchor="middle" >2</text><text font-size="15" x="980" y="9.5" font-family="Courier New, monospace" dominant-baseline="middle" text-anchor="middle" ></text><text font-size="15" x="1020" y="9.5" font-family="Courier New, monospace" dominant-baseline="middle" text-anchor="middle" ></text><text font-size="15" x="1060" y="9.5" font-family="Courier New, monospace" dominant-baseline="middle" text-anchor="middle" >1</text><text font-size="15" x="1100" y="9.5" font-family="Courier New, monospace" dominant-baseline="middle" text-anchor="middle" ></text><text font-size="15" x="1140" y="9.5" font-family="Courier New, monospace" dominant-baseline="middle" text-anchor="middle" ></text><text font-size="15" x="1180" y="9.5" font-family="Courier New, monospace" dominant-baseline="middle" text-anchor="middle" >0</text><text font-size="15" x="1220" y="9.5" font-family="Courier New, monospace" dominant-baseline="middle" text-anchor="middle" ></text><line x1="40" y1="18" x2="240" y2="18" stroke="#000000" stroke-width="1" /><line x1="40" y1="63" x2="240" y2="63" stroke="#000000" stroke-width="1" /><line x1="240" y1="18" x2="240" y2="63" stroke="#000000" stroke-width="1" /><line x1="40" y1="18" x2="40" y2="63" stroke="#000000" stroke-width="1" /><text font-size="20" x="140" y="41.5" text-anchor="middle" dominant-baseline="middle" >action</text><line x1="240" y1="18" x2="360" y2="18" stroke="#000000" stroke-width="1" /><line x1="240" y1="63" x2="360" y2="63" stroke="#000000" stroke-width="1" /><line x1="360" y1="18" x2="360" y2="63" stroke="#000000" stroke-width="1" /><line x1="240" y1="18" x2="240" y2="63" stroke="#000000" stroke-width="1" /><text font-size="20" x="300" y="41.5" text-anchor="middle" dominant-baseline="middle" >chain</text><line x1="360" y1="18" x2="560" y2="18" stroke="#000000" stroke-width="1" /><line x1="360" y1="63" x2="560" y2="63" stroke="#000000" stroke-width="1" /><line x1="560" y1="18" x2="560" y2="63" stroke="#000000" stroke-width="1" /><line x1="360" y1="18" x2="360" y2="63" stroke="#000000" stroke-width="1" /><text font-size="20" x="460" y="41.5" text-anchor="middle" dominant-baseline="middle" >match</text><line x1="560" y1="18" x2="600" y2="18" stroke="#000000" stroke-width="1" /><line x1="560" y1="63" x2="600" y2="63" stroke="#000000" stroke-width="1" /><line x1="600" y1="18" x2="600" y2="63" stroke="#000000" stroke-width="1" /><line x1="560" y1="18" x2="560" y2="63" stroke="#000000" stroke-width="1" /><text font-size="20" x="580" y="41.5" text-anchor="middle" dominant-baseline="middle" >m</text><line x1="600" y1="18" x2="800" y2="18" stroke="#000000" stroke-width="1" /><line x1="600" y1="63" x2="800" y2="63" stroke="#000000" stroke-width="1" /><line x1="800" y1="18" x2="800" y2="63" stroke="#000000" stroke-width="1" /><line x1="600" y1="18" x2="600" y2="63" stroke="#000000" stroke-width="1" /><text font-size="20" x="700" y="41.5" text-anchor="middle" dominant-baseline="middle" >uncertainen</text><line x1="800" y1="18" x2="840" y2="18" stroke="#000000" stroke-width="1" /><line x1="800" y1="63" x2="840" y2="63" stroke="#000000" stroke-width="1" /><line x1="840" y1="18" x2="840" y2="63" stroke="#000000" stroke-width="1" /><line x1="800" y1="18" x2="800" y2="63" stroke="#000000" stroke-width="1" /><text font-size="20" x="820" y="41.5" text-anchor="middle" dominant-baseline="middle" >s</text><line x1="840" y1="18" x2="880" y2="18" stroke="#000000" stroke-width="1" /><line x1="840" y1="63" x2="880" y2="63" stroke="#000000" stroke-width="1" /><line x1="880" y1="18" x2="880" y2="63" stroke="#000000" stroke-width="1" /><line x1="840" y1="18" x2="840" y2="63" stroke="#000000" stroke-width="1" /><text font-size="20" x="860" y="41.5" text-anchor="middle" dominant-baseline="middle" >u</text><line x1="880" y1="18" x2="1000" y2="18" stroke="#000000" stroke-width="1" /><line x1="880" y1="63" x2="1000" y2="63" stroke="#000000" stroke-width="1" /><line x1="1000" y1="18" x2="1000" y2="63" stroke="#000000" stroke-width="1" /><line x1="880" y1="18" x2="880" y2="63" stroke="#000000" stroke-width="1" /><text font-size="20" x="940" y="41.5" text-anchor="middle" dominant-baseline="middle" >execute</text><line x1="1000" y1="18" x2="1120" y2="18" stroke="#000000" stroke-width="1" /><line x1="1000" y1="63" x2="1120" y2="63" stroke="#000000" stroke-width="1" /><line x1="1120" y1="18" x2="1120" y2="63" stroke="#000000" stroke-width="1" /><line x1="1000" y1="18" x2="1000" y2="63" stroke="#000000" stroke-width="1" /><text font-size="20" x="1060" y="41.5" text-anchor="middle" dominant-baseline="middle" >store</text><line x1="1120" y1="18" x2="1240" y2="18" stroke="#000000" stroke-width="1" /><line x1="1120" y1="63" x2="1240" y2="63" stroke="#000000" stroke-width="1" /><line x1="1240" y1="18" x2="1240" y2="63" stroke="#000000" stroke-width="1" /><line x1="1120" y1="18" x2="1120" y2="63" stroke="#000000" stroke-width="1" /><text font-size="20" x="1180" y="41.5" text-anchor="middle" dominant-baseline="middle" >load</text><text font-size="18" font-family="Palatino, Georgia, Times New Roman, serif" x="140" y="86.5" text-anchor="middle" dominant-baseline="middle" >4</text><text font-size="18" font-family="Palatino, Georgia, Times New Roman, serif" x="300" y="86.5" text-anchor="middle" dominant-baseline="middle" >1</text><text font-size="18" font-family="Palatino, Georgia, Times New Roman, serif" x="460" y="86.5" text-anchor="middle" dominant-baseline="middle" >4</text><text font-size="18" font-family="Palatino, Georgia, Times New Roman, serif" x="580" y="86.5" text-anchor="middle" dominant-baseline="middle" >1</text><text font-size="18" font-family="Palatino, Georgia, Times New Roman, serif" x="700" y="86.5" text-anchor="middle" dominant-baseline="middle" >1</text><text font-size="18" font-family="Palatino, Georgia, Times New Roman, serif" x="820" y="86.5" text-anchor="middle" dominant-baseline="middle" >1</text><text font-size="18" font-family="Palatino, Georgia, Times New Roman, serif" x="860" y="86.5" text-anchor="middle" dominant-baseline="middle" >1</text><text font-size="18" font-family="Palatino, Georgia, Times New Roman, serif" x="940" y="86.5" text-anchor="middle" dominant-baseline="middle" >1</text><text font-size="18" font-family="Palatino, Georgia, Times New Roman, serif" x="1060" y="86.5" text-anchor="middle" dominant-baseline="middle" >1</text><text font-size="18" font-family="Palatino, Georgia, Times New Roman, serif" x="1180" y="86.5" text-anchor="middle" dominant-baseline="middle" >1</text></svg>