<?xml version="1.0" encoding="UTF-8"?><svg xmlns="http://www.w3.org/2000/svg" width="1020" height="392" version="1.0" shape-rendering="geometricPrecision"><defs><filter id="shadowBlur" x="0" y="0" width="200%" height="200%"><feOffset in="SourceGraphic" dx="3.0003002" dy="3.0003002" result="offOut"></feOffset><feGaussianBlur in="offOut" stdDeviation="3"></feGaussianBlur></filter></defs><g stroke-width="1" stroke-linecap="square" stroke-linejoin="round"><rect x="0" y="0" width="1020" height="392" style="fill: #ffffff"></rect><path stroke="#969696" fill="#969696" filter="url(#shadowBlur)" d="M25.0 217.0 L995.0 217.0 L995.0 273.0 L25.0 273.0 z"></path><path stroke="#969696" fill="#969696" filter="url(#shadowBlur)" d="M25.0 133.0 L485.0 133.0 L485.0 189.0 L25.0 189.0 z"></path><path stroke="#969696" fill="#969696" filter="url(#shadowBlur)" d="M535.0 133.0 L995.0 133.0 L995.0 189.0 L535.0 189.0 z"></path><path stroke="#969696" fill="#969696" filter="url(#shadowBlur)" d="M25.0 301.0 L245.0 301.0 L245.0 357.0 L25.0 357.0 z"></path><path stroke="#969696" fill="#969696" filter="url(#shadowBlur)" d="M265.0 301.0 L485.0 301.0 L485.0 357.0 L265.0 357.0 z"></path><path stroke="#969696" fill="#969696" filter="url(#shadowBlur)" d="M535.0 301.0 L755.0 301.0 L755.0 357.0 L535.0 357.0 z"></path><path stroke="#969696" fill="#969696" filter="url(#shadowBlur)" d="M775.0 301.0 L995.0 301.0 L995.0 357.0 L775.0 357.0 z"></path><path stroke="#969696" fill="#969696" filter="url(#shadowBlur)" d="M25.0 49.0 L115.0 49.0 L115.0 105.0 L25.0 105.0 z"></path><path stroke="#969696" fill="#969696" filter="url(#shadowBlur)" d="M145.0 49.0 L235.0 49.0 L235.0 105.0 L145.0 105.0 z"></path><path stroke="#969696" fill="#969696" filter="url(#shadowBlur)" d="M265.0 49.0 L355.0 49.0 L355.0 105.0 L265.0 105.0 z"></path><path stroke="#969696" fill="#969696" filter="url(#shadowBlur)" d="M385.0 49.0 L475.0 49.0 L475.0 105.0 L385.0 105.0 z"></path><path stroke="#969696" fill="#969696" filter="url(#shadowBlur)" d="M545.0 49.0 L635.0 49.0 L635.0 105.0 L545.0 105.0 z"></path><path stroke="#969696" fill="#969696" filter="url(#shadowBlur)" d="M665.0 49.0 L755.0 49.0 L755.0 105.0 L665.0 105.0 z"></path><path stroke="#969696" fill="#969696" filter="url(#shadowBlur)" d="M785.0 49.0 L875.0 49.0 L875.0 105.0 L785.0 105.0 z"></path><path stroke="#969696" fill="#969696" filter="url(#shadowBlur)" d="M905.0 49.0 L995.0 49.0 L995.0 105.0 L905.0 105.0 z"></path><path stroke="#000000" stroke-width="1.0" stroke-linecap="round" stroke-linejoin="round" fill="white" d="M25.0 217.0 L995.0 217.0 L995.0 273.0 L25.0 273.0 z"></path><path stroke="#000000" stroke-width="1.0" stroke-linecap="round" stroke-linejoin="round" fill="white" d="M25.0 133.0 L485.0 133.0 L485.0 189.0 L25.0 189.0 z"></path><path stroke="#000000" stroke-width="1.0" stroke-linecap="round" stroke-linejoin="round" fill="white" d="M535.0 133.0 L995.0 133.0 L995.0 189.0 L535.0 189.0 z"></path><path stroke="#000000" stroke-width="1.0" stroke-linecap="round" stroke-linejoin="round" fill="white" d="M25.0 301.0 L245.0 301.0 L245.0 357.0 L25.0 357.0 z"></path><path stroke="#000000" stroke-width="1.0" stroke-linecap="round" stroke-linejoin="round" fill="white" d="M265.0 301.0 L485.0 301.0 L485.0 357.0 L265.0 357.0 z"></path><path stroke="#000000" stroke-width="1.0" stroke-linecap="round" stroke-linejoin="round" fill="white" d="M535.0 301.0 L755.0 301.0 L755.0 357.0 L535.0 357.0 z"></path><path stroke="#000000" stroke-width="1.0" stroke-linecap="round" stroke-linejoin="round" fill="white" d="M775.0 301.0 L995.0 301.0 L995.0 357.0 L775.0 357.0 z"></path><path stroke="#000000" stroke-width="1.0" stroke-linecap="round" stroke-linejoin="round" fill="white" d="M25.0 49.0 L115.0 49.0 L115.0 105.0 L25.0 105.0 z"></path><path stroke="#000000" stroke-width="1.0" stroke-linecap="round" stroke-linejoin="round" fill="white" d="M145.0 49.0 L235.0 49.0 L235.0 105.0 L145.0 105.0 z"></path><path stroke="#000000" stroke-width="1.0" stroke-linecap="round" stroke-linejoin="round" fill="white" d="M265.0 49.0 L355.0 49.0 L355.0 105.0 L265.0 105.0 z"></path><path stroke="#000000" stroke-width="1.0" stroke-linecap="round" stroke-linejoin="round" fill="white" d="M385.0 49.0 L475.0 49.0 L475.0 105.0 L385.0 105.0 z"></path><path stroke="#000000" stroke-width="1.0" stroke-linecap="round" stroke-linejoin="round" fill="white" d="M545.0 49.0 L635.0 49.0 L635.0 105.0 L545.0 105.0 z"></path><path stroke="#000000" stroke-width="1.0" stroke-linecap="round" stroke-linejoin="round" fill="white" d="M665.0 49.0 L755.0 49.0 L755.0 105.0 L665.0 105.0 z"></path><path stroke="#000000" stroke-width="1.0" stroke-linecap="round" stroke-linejoin="round" fill="white" d="M785.0 49.0 L875.0 49.0 L875.0 105.0 L785.0 105.0 z"></path><path stroke="#000000" stroke-width="1.0" stroke-linecap="round" stroke-linejoin="round" fill="white" d="M905.0 49.0 L995.0 49.0 L995.0 105.0 L905.0 105.0 z"></path><text x="44" y="82" font-family="sans-serif" font-size="15" stroke="none" fill="#000000"><![CDATA[Core 0]]></text><text x="164" y="82" font-family="sans-serif" font-size="15" stroke="none" fill="#000000"><![CDATA[Core 1]]></text><text x="284" y="82" font-family="sans-serif" font-size="15" stroke="none" fill="#000000"><![CDATA[Core 2]]></text><text x="404" y="82" font-family="sans-serif" font-size="15" stroke="none" fill="#000000"><![CDATA[Core 3]]></text><text x="564" y="82" font-family="sans-serif" font-size="15" stroke="none" fill="#000000"><![CDATA[Core 4]]></text><text x="684" y="82" font-family="sans-serif" font-size="15" stroke="none" fill="#000000"><![CDATA[Core 5]]></text><text x="804" y="82" font-family="sans-serif" font-size="15" stroke="none" fill="#000000"><![CDATA[Core 6]]></text><text x="924" y="82" font-family="sans-serif" font-size="15" stroke="none" fill="#000000"><![CDATA[Core 7]]></text><text x="91" y="166" font-family="sans-serif" font-size="15" stroke="none" fill="#000000"><![CDATA[Cluster 0 L2 Cache (Shared by C0 to C3)]]></text><text x="601" y="166" font-family="sans-serif" font-size="15" stroke="none" fill="#000000"><![CDATA[Cluster 1 L2 Cache (Shared by C4 to C7)]]></text><text x="379" y="250" font-family="sans-serif" font-size="15" stroke="none" fill="#000000"><![CDATA[Shared LLC (Shared by 8 Cores)]]></text><text x="52" y="334" font-family="sans-serif" font-size="15" stroke="none" fill="#000000"><![CDATA[Memory Controller 0]]></text><text x="292" y="334" font-family="sans-serif" font-size="15" stroke="none" fill="#000000"><![CDATA[Memory Controller 1]]></text><text x="562" y="334" font-family="sans-serif" font-size="15" stroke="none" fill="#000000"><![CDATA[Memory Controller 2]]></text><text x="802" y="334" font-family="sans-serif" font-size="15" stroke="none" fill="#000000"><![CDATA[Memory Controller 3]]></text></g></svg>