<svg version="1.1" id="Layer_1" xmlns="http://www.w3.org/2000/svg" x="0" y="0" viewBox="0 0 1000 175.4" xml:space="preserve"><style>.st0{fill:#f4b01b}.st1{fill:#fff}</style><path class="st0" d="M91.6 58.2c0 22.9-13.9 43.7-40.9 48.6l38.1 45.1 3.4-4.8L161 49.9V9H49.3c28.4 2.7 42.3 26.3 42.3 49.2z"/><path class="st1" d="M13.2 85.9h26.4C59 85.9 68.7 72 68.7 58.2c0-13.9-9.7-27.1-29.1-27.1H3.5v135.3h67.3L13.2 97.1V85.9zm97.8 73.6l50.6-70.8v77.7H106l5-6.9zM392.7 35.3h22.9v107.5h-22.9zm159.3 84l-119.1-.1v23.6h120c9 0 16.7-3.5 22.9-9.7s9.7-13.9 9.7-22.9-3.5-16.6-9.7-22.9c-6.2-6.2-13.9-9.7-22.9-9.7l-87.3-.6c-5.1 0-9.3-4.2-9.4-9.3 0-5.2 4.2-9.3 9.4-9.3l119.9-.1v-23h-120c-9 0-16.7 3.5-22.9 9.7-6.2 6.2-9.7 13.9-9.7 22.9s3.5 16.6 9.7 22.9c6.2 6.2 13.9 9 22.9 9h87.2c5.2 0 9.4 4.2 9.3 9.4.1 5.6-4.4 10.1-10 10.1zm98-84h99.2v22.9H650c-8.3 0-15.2 2.7-21.5 9-6.2 6.2-9 13.2-9 21.5s2.8 15.2 9 21.5c6.3 6.2 13.2 9 21.5 9h99.2v23.6H650c-14.6 0-27.1-5.6-37.5-16s-15.2-22.9-15.2-37.5 4.8-27.1 15.2-37.5C623 40.9 635.4 35.3 650 35.3zM342 78.5l-95.7-.2V58.9l96.7-.2c5.2 0 9.5 4.2 9.5 9.4-.1 5.8-4.7 10.4-10.5 10.4zm34 64.3l-30.5-42.3c8.3-.7 15.2-3.5 20.8-9.7 6.2-6.3 9.7-13.9 9.7-22.9s-3.5-16.7-9.7-22.9-13.9-9.7-22.9-9.7h-120v107.5h22.9v-42.3h70.8l30.5 42.3H376z"/><path class="st0" d="M863.7 142.8L800.8 35.3h26.9l49.1 85.3L926 35.3h26.5L890 142.8M763.1 79h45.1v20.8h-45.1z"/><path class="st1" d="M996.5 52.5c0 9.4-7.3 16.7-16.9 16.7-9.5 0-17-7.3-17-16.7 0-9.2 7.5-16.5 17-16.5s16.9 7.3 16.9 16.5zm-29.7 0c0 7.3 5.4 13.2 12.9 13.2 7.2 0 12.6-5.8 12.6-13.1s-5.3-13.3-12.7-13.3-12.8 5.9-12.8 13.2zm10.2 8.6h-3.8V44.6c1.5-.3 3.6-.5 6.3-.5 3.1 0 4.5.5 5.7 1.2.9.7 1.6 2 1.6 3.6 0 1.8-1.4 3.2-3.4 3.8v.3c1.6.6 2.5 1.8 3 4 .5 2.5.8 3.5 1.2 4.1h-4.1c-.5-.6-.8-2.1-1.3-4-.3-1.8-1.3-2.6-3.4-2.6H977v6.6zm0-9.3h1.8c2.1 0 3.8-.7 3.8-2.4 0-1.5-1.1-2.5-3.5-2.5-1 0-1.7.1-2.1.2v4.7z"/></svg>